<?xml version="1.0" standalone="no"?>
<!DOCTYPE svg PUBLIC "-//W3C//DTD SVG 20010904//EN"
 "http://www.w3.org/TR/2001/REC-SVG-20010904/DTD/svg10.dtd">
<svg version="1.0" xmlns="http://www.w3.org/2000/svg"
 width="210.000000pt" height="63.000000pt" viewBox="0 0 210.000000 63.000000"
 preserveAspectRatio="xMidYMid meet">

<g transform="translate(0.000000,63.000000) scale(0.100000,-0.100000)"
fill="#000000" stroke="none">
<path d="M1220 545 c-19 -23 -8 -50 20 -50 16 0 26 6 28 18 4 18 -14 47 -28
47 -4 0 -13 -7 -20 -15z"/>
<path d="M965 499 c-128 -44 -184 -149 -140 -257 22 -52 101 -130 160 -158 98
-47 181 -21 247 76 66 98 74 191 21 244 -22 22 -35 26 -83 26 -100 0 -143 -65
-48 -72 58 -4 64 -30 11 -55 -37 -18 -38 -19 -41 -78 -2 -32 -8 -65 -14 -72
-15 -19 -45 -16 -53 5 -10 28 -45 205 -45 233 0 44 54 82 134 94 63 9 48 25
-30 31 -43 3 -75 -1 -119 -17z"/>
<path d="M1320 421 c0 -6 5 -13 10 -16 6 -3 10 1 10 9 0 9 -4 16 -10 16 -5 0
-10 -4 -10 -9z"/>
<path d="M1787 423 c-4 -3 -7 -60 -7 -125 0 -98 3 -118 15 -118 11 0 15 12 15
51 0 66 13 89 50 89 37 0 50 -23 50 -89 0 -39 4 -51 15 -51 12 0 15 14 15 64
0 93 -35 127 -107 102 -22 -7 -23 -5 -23 38 0 43 -7 55 -23 39z"/>
<path d="M194 350 c-56 -22 -72 -103 -29 -145 26 -27 72 -33 106 -14 30 16 12
30 -31 23 -34 -6 -40 -3 -56 21 -24 37 -10 79 29 83 16 2 34 -2 42 -8 15 -12
35 -6 35 11 0 8 -62 41 -72 38 -2 0 -13 -4 -24 -9z"/>
<path d="M387 353 c-4 -3 -20 -6 -37 -5 l-30 1 0 -85 c0 -68 3 -84 15 -84 11
0 15 13 15 54 0 74 6 86 44 86 39 0 50 8 35 27 -12 14 -32 17 -42 6z"/>
<path d="M495 353 c-69 -17 -85 -115 -26 -160 21 -16 84 -16 99 -1 22 22 13
28 -28 22 -26 -4 -45 -2 -55 6 -26 22 -17 29 43 32 53 3 57 5 60 29 5 45 -44
83 -93 72z m55 -37 c0 -2 3 -11 6 -20 5 -13 -2 -16 -40 -16 -43 0 -59 13 -39
33 7 8 73 10 73 3z"/>
<path d="M650 342 c-55 -28 -65 -97 -20 -142 22 -22 79 -27 98 -8 9 9 12 9 12
0 0 -7 7 -12 15 -12 12 0 15 14 15 63 0 53 -4 67 -22 84 -34 31 -59 35 -98 15z
m81 -46 c25 -53 -24 -108 -70 -79 -20 12 -27 69 -10 89 19 24 68 18 80 -10z"/>
<path d="M1390 350 c-8 -5 -25 -7 -37 -3 -23 5 -23 3 -23 -81 0 -70 3 -86 15
-86 12 0 15 13 15 58 0 65 11 82 51 82 32 0 48 18 28 31 -18 11 -30 11 -49 -1z"/>
<path d="M1495 346 c-31 -13 -55 -51 -55 -86 0 -10 12 -32 26 -49 19 -23 34
-31 59 -31 43 0 65 9 65 26 0 11 -9 13 -40 8 -26 -4 -45 -2 -55 6 -27 22 -16
29 48 32 62 3 62 3 60 32 -4 55 -56 84 -108 62z m73 -48 c3 -15 -4 -18 -42
-18 -32 0 -46 4 -46 13 0 22 12 28 50 25 24 -2 36 -9 38 -20z"/>
<path d="M1658 349 c-14 -6 -29 -17 -32 -26 -10 -24 18 -58 56 -69 44 -13 51
-44 9 -44 -16 0 -33 5 -36 10 -9 15 -35 12 -35 -5 0 -35 95 -49 123 -17 33 36
11 71 -55 87 -16 4 -28 14 -28 22 0 13 9 15 45 10 54 -8 64 14 14 32 -18 6
-32 11 -33 10 -1 0 -13 -5 -28 -10z"/>
<path d="M850 110 c0 -5 5 -10 11 -10 5 0 7 5 4 10 -3 6 -8 10 -11 10 -2 0 -4
-4 -4 -10z"/>
</g>
</svg>
