<?xml version="1.0" standalone="no"?>
<!DOCTYPE svg PUBLIC "-//W3C//DTD SVG 20010904//EN"
 "http://www.w3.org/TR/2001/REC-SVG-20010904/DTD/svg10.dtd">
<svg version="1.0" xmlns="http://www.w3.org/2000/svg"
 width="96.000000pt" height="73.000000pt" viewBox="0 0 96.000000 73.000000"
 preserveAspectRatio="xMidYMid meet">

<g transform="translate(0.000000,73.000000) scale(0.100000,-0.100000)"
fill="#000000" stroke="none">
<path d="M652 588 c-18 -18 -14 -46 7 -58 25 -13 48 -4 56 21 12 38 -35 65
-63 37z"/>
<path d="M385 536 c-118 -55 -167 -165 -116 -264 25 -48 105 -124 158 -151
135 -67 290 48 301 225 4 56 2 64 -24 93 -45 50 -139 56 -184 11 -17 -17 -18
-24 -9 -41 9 -17 17 -20 44 -16 57 9 69 -31 15 -48 -34 -10 -40 -22 -40 -78 0
-73 -29 -110 -58 -74 -14 17 -54 213 -50 246 4 34 56 67 118 76 97 13 73 45
-35 45 -53 0 -82 -6 -120 -24z"/>
<path d="M760 470 c-12 -7 -12 -12 -2 -22 9 -9 15 -9 24 0 16 16 -2 34 -22 22z"/>
<path d="M287 154 c-8 -8 1 -24 14 -24 5 0 9 7 9 15 0 15 -12 20 -23 9z"/>
</g>
</svg>
